<svg xmlns="http://www.w3.org/2000/svg" xmlns:xlink="http://www.w3.org/1999/xlink" version="1.1" data-diagram-type="CLASS" style="width:203px;height:160px;background:#FFFFFF;" width="203px" height="160px" viewBox="0 0 203 160" zoomAndPan="magnify" preserveAspectRatio="none" contentStyleType="text/css"><?plantuml 1.2026.8?><defs/><g font-family="sans-serif" lengthAdjust="spacing"><g class="entity" data-qualified-name="library" id="ent0001" data-source-line="1"><rect x="34.787" y="12" width="52.117" height="37.609" fill="#F1F1F1" style="stroke:#181818;stroke-width:0.5;" rx="2.5" ry="2.5"/><text x="41.787" y="28.533" fill="#000" font-size="14" textLength="38.117">library</text><line x1="35.787" y1="33.609" x2="85.904" y2="33.609" style="stroke:#181818;stroke-width:0.5;"/></g><g class="entity" data-qualified-name="book1" id="ent0002" data-source-line="2"><rect x="107.787" y="106" width="52.145" height="37.609" fill="#F1F1F1" style="stroke:#181818;stroke-width:0.5;" rx="2.5" ry="2.5"/><text x="114.787" y="122.533" fill="#000" font-size="14" textLength="38.145">book1</text><line x1="108.787" y1="127.609" x2="158.932" y2="127.609" style="stroke:#181818;stroke-width:0.5;"/></g><g class="entity" data-qualified-name="book2" id="ent0003" data-source-line="3"><rect x="14.787" y="106" width="52.145" height="37.609" fill="#F1F1F1" style="stroke:#181818;stroke-width:0.5;" rx="2.5" ry="2.5"/><text x="21.787" y="122.533" fill="#000" font-size="14" textLength="38.145">book2</text><line x1="15.787" y1="127.609" x2="65.932" y2="127.609" style="stroke:#181818;stroke-width:0.5;"/></g><g class="entity" data-qualified-name="member" id="ent0004" data-source-line="4"><rect x="124.287" y="12" width="65.345" height="37.609" fill="#F1F1F1" style="stroke:#181818;stroke-width:0.5;" rx="2.5" ry="2.5"/><text x="131.287" y="28.533" fill="#000" font-size="14" textLength="51.345">member</text><line x1="125.287" y1="33.609" x2="188.632" y2="33.609" style="stroke:#181818;stroke-width:0.5;"/></g><g class="link" data-entity-1="ent0001" data-entity-2="ent0002" id="lnk5" data-link-type="aggregation"><polygon points="74.356,50.048,74.794,57.245,81.607,59.609,81.169,52.412,74.356,50.048" fill="none" style="stroke:#181818;stroke-width:1;stroke-linejoin:miter;stroke-miterlimit:10;"/><path d="M81.607,59.609 C89.981,70.653 93.755,75.462 103.787,88 C108.463,93.844 113.653,100.138 118.383,105.802" style="stroke:#181818;stroke-width:1;" fill="none"/><text x="105.787" y="83.495" fill="#000" font-size="13" textLength="31.078">holds</text><text x="86.383" y="102.297" fill="#000" font-size="13" textLength="31.789">many</text><text x="75.356" y="64.543" fill="#000" font-size="13">1</text></g><g class="link" data-entity-1="ent0001" data-entity-2="ent0003" id="lnk6" data-link-type="aggregation"><polygon points="49.179,50.01,42.813,53.397,43.49,60.576,49.857,57.189,49.179,50.01" fill="none" style="stroke:#181818;stroke-width:1;stroke-linejoin:miter;stroke-miterlimit:10;"/><path d="M43.49,60.576 C40.501,66.128 43.371,61.84 41.787,68 C38.614,80.337 38.427,94.711 39,105.808" style="stroke:#181818;stroke-width:1;" fill="none"/><text x="43.787" y="83.495" fill="#000" font-size="13" textLength="31.078">holds</text><text x="7" y="102.303" fill="#000" font-size="13" textLength="31.789">many</text><text x="41.179" y="64.505" fill="#000" font-size="13">1</text></g><g class="link" data-entity-1="ent0004" data-entity-2="ent0002" id="lnk7" data-link-type="dependency"><polygon points="138.322,105.862,144.385,98.1,139.534,101.011,136.624,96.16,138.322,105.862" fill="#181818" style="stroke:#181818;stroke-width:1;stroke-linejoin:miter;stroke-miterlimit:10;"/><path d="M152.243,50.176 C148.211,66.305 143.564,84.893 139.534,101.011" style="stroke:#181818;stroke-width:1;" fill="none"/><text x="148.787" y="83.495" fill="#000" font-size="13" textLength="46.236">borrows</text><text x="139.322" y="102.357" fill="#000" font-size="13" textLength="21.684">0..5</text><text x="141.743" y="64.671" fill="#000" font-size="13" textLength="21.684">0..1</text></g><?plantuml-src oq_AIaqkKSZ9J2fABAhaoeTma_BpimsHEKOmJcvgRb9g4HTKlOAIeP92lgwkWb9kObwb4aIVWfL2HdvEIZ4-HKPmHH035PGCzFI0odHrxS1CKuHPIVb5HVdbnGfs0000?></g></svg>