<svg xmlns="http://www.w3.org/2000/svg" xmlns:xlink="http://www.w3.org/1999/xlink" version="1.1" data-diagram-type="SEQUENCE" style="width:384px;height:286px;background:#FFFFFF;" width="384px" height="286px" viewBox="0 0 384 286" zoomAndPan="magnify" preserveAspectRatio="none" contentStyleType="text/css"><?plantuml 1.2026.8?><defs/><g font-family="sans-serif" lengthAdjust="spacing"><g><title>Bob</title><rect x="25.955" y="42.609" width="8" height="200.109" fill="#000" fill-opacity="0"/><line x1="29.455" y1="42.609" x2="29.455" y2="242.719" style="stroke:#181818;stroke-width:0.5;stroke-dasharray:5,5;"/></g><g><title>Alice</title><rect x="348.099" y="42.609" width="8" height="200.109" fill="#000" fill-opacity="0"/><line x1="351.599" y1="42.609" x2="351.599" y2="242.719" style="stroke:#181818;stroke-width:0.5;stroke-dasharray:5,5;"/></g><rect x="10" y="10" width="38.91" height="31.609" fill="#E2E2F0" style="stroke:#181818;stroke-width:0.5;" rx="2.5" ry="2.5"/><text x="17" y="31.533" fill="#000" font-size="14" textLength="24.91">Bob</text><rect x="329.427" y="10" width="44.345" height="31.609" fill="#E2E2F0" style="stroke:#181818;stroke-width:0.5;" rx="2.5" ry="2.5"/><text x="336.427" y="31.533" fill="#000" font-size="14" textLength="30.345">Alice</text><rect x="10" y="242.719" width="38.91" height="31.609" fill="#E2E2F0" style="stroke:#181818;stroke-width:0.5;" rx="2.5" ry="2.5"/><text x="17" y="264.252" fill="#000" font-size="14" textLength="24.91">Bob</text><rect x="329.427" y="242.719" width="44.345" height="31.609" fill="#E2E2F0" style="stroke:#181818;stroke-width:0.5;" rx="2.5" ry="2.5"/><text x="336.427" y="264.252" fill="#000" font-size="14" textLength="30.345">Alice</text><polygon points="339.599,68.961,349.599,72.961,339.599,76.961,343.599,72.961" fill="#181818" style="stroke:#181818;stroke-width:1;stroke-linejoin:miter;stroke-miterlimit:10;"/><line x1="29.455" y1="72.961" x2="345.599" y2="72.961" style="stroke:#181818;stroke-width:1;"/><text x="36.455" y="68.104" fill="#000" font-size="13" textLength="30.348" font-weight="700">[001]</text><text x="70.803" y="68.104" fill="#000" font-size="13" textLength="134.424">Authentication Request</text><polygon points="40.455,99.313,30.455,103.313,40.455,107.313,36.455,103.313" fill="#181818" style="stroke:#181818;stroke-width:1;stroke-linejoin:miter;stroke-miterlimit:10;"/><line x1="34.455" y1="103.313" x2="350.599" y2="103.313" style="stroke:#181818;stroke-width:1;"/><text x="46.455" y="98.456" fill="#000" font-size="13" textLength="30.348" font-weight="700">[002]</text><text x="80.803" y="98.456" fill="#000" font-size="13" textLength="144.542">Authentication Response</text><polygon points="339.599,129.664,349.599,133.664,339.599,137.664,343.599,133.664" fill="#181818" style="stroke:#181818;stroke-width:1;stroke-linejoin:miter;stroke-miterlimit:10;"/><line x1="29.455" y1="133.664" x2="345.599" y2="133.664" style="stroke:#181818;stroke-width:1;"/><text x="36.455" y="128.808" fill="#000" font-size="13" font-weight="700">(</text><text x="40.784" y="128.808" fill="#000" font-size="13" textLength="14.46" font-weight="700" text-decoration="underline">15</text><text x="55.244" y="128.808" fill="#000" font-size="13" font-weight="700">)</text><text x="63.573" y="128.808" fill="#000" font-size="13" textLength="182.127">Another authentication Request</text><polygon points="40.455,160.016,30.455,164.016,40.455,168.016,36.455,164.016" fill="#181818" style="stroke:#181818;stroke-width:1;stroke-linejoin:miter;stroke-miterlimit:10;"/><line x1="34.455" y1="164.016" x2="350.599" y2="164.016" style="stroke:#181818;stroke-width:1;"/><text x="46.455" y="159.159" fill="#000" font-size="13" font-weight="700">(</text><text x="50.784" y="159.159" fill="#000" font-size="13" textLength="14.46" font-weight="700" text-decoration="underline">16</text><text x="65.244" y="159.159" fill="#000" font-size="13" font-weight="700">)</text><text x="73.573" y="159.159" fill="#000" font-size="13" textLength="192.245">Another authentication Response</text><polygon points="339.599,190.367,349.599,194.367,339.599,198.367,343.599,194.367" fill="#181818" style="stroke:#181818;stroke-width:1;stroke-linejoin:miter;stroke-miterlimit:10;"/><line x1="29.455" y1="194.367" x2="345.599" y2="194.367" style="stroke:#181818;stroke-width:1;"/><text x="36.455" y="189.511" fill="#F00" font-size="13" textLength="72.992" font-weight="700">Message 40</text><text x="120.67" y="189.511" fill="#000" font-size="13" textLength="203.811">Yet another authentication Request</text><polygon points="40.455,220.719,30.455,224.719,40.455,228.719,36.455,224.719" fill="#181818" style="stroke:#181818;stroke-width:1;stroke-linejoin:miter;stroke-miterlimit:10;"/><line x1="34.455" y1="224.719" x2="350.599" y2="224.719" style="stroke:#181818;stroke-width:1;"/><text x="46.455" y="219.862" fill="#F00" font-size="13" textLength="72.992" font-weight="700">Message 50</text><text x="130.67" y="219.862" fill="#000" font-size="13" textLength="213.929">Yet another authentication Response</text><?plantuml-src bSun2y8m48RXlR_YerrqAAQWYyH0tLtSH1pIUcgWvZIv_7zB7HnAHVVlxdbj4lRftb10hXjpL4gTycpB3Kg3kdCjOOqwoOsykDQAOuyzFHD56LQwd5x51_j8cVqGrMfGPZgPej2BPEPZotF_9i3-Pawjn_PIeL8zVs4lQBdZi0bqDdtEZcAqLu82HZa74jY_ahvUlBDU?></g></svg>