<svg xmlns="http://www.w3.org/2000/svg" xmlns:xlink="http://www.w3.org/1999/xlink" version="1.1" data-diagram-type="SEQUENCE" style="width:264px;height:268px;background:#FFFFFF;" width="264px" height="268px" viewBox="0 0 264 268" zoomAndPan="magnify" preserveAspectRatio="none" contentStyleType="text/css"><?plantuml 1.2026.8?><defs/><g font-family="sans-serif" lengthAdjust="spacing"><g><title>User</title><rect x="28.279" y="42.609" width="8" height="182.758" fill="#000" fill-opacity="0"/><line x1="31.779" y1="42.609" x2="31.779" y2="225.367" style="stroke:#181818;stroke-width:0.5;stroke-dasharray:5,5;"/></g><g><title>A</title><rect x="104.227" y="42.609" width="8" height="182.758" fill="#000" fill-opacity="0"/><line x1="107.727" y1="42.609" x2="107.727" y2="225.367" style="stroke:#181818;stroke-width:0.5;stroke-dasharray:5,5;"/></g><g><title></title><rect x="102.727" y="72.961" width="10" height="134.406" fill="#FBB" style="stroke:#181818;stroke-width:1;"/></g><g><title></title><rect x="107.727" y="116.313" width="10" height="60.703" fill="#E9967A" style="stroke:#181818;stroke-width:1;"/></g><g><title>B</title><rect x="237.896" y="42.609" width="8" height="182.758" fill="#000" fill-opacity="0"/><line x1="241.396" y1="42.609" x2="241.396" y2="225.367" style="stroke:#181818;stroke-width:0.5;stroke-dasharray:5,5;"/></g><g><title></title><rect x="236.396" y="146.664" width="10" height="30.352" fill="#FFF" style="stroke:#181818;stroke-width:1;"/></g><rect x="10" y="10" width="43.559" height="31.609" fill="#E2E2F0" style="stroke:#181818;stroke-width:0.5;" rx="2.5" ry="2.5"/><text x="17" y="31.533" fill="#000" font-size="14" textLength="29.559">User</text><rect x="96.058" y="10" width="23.338" height="31.609" fill="#E2E2F0" style="stroke:#181818;stroke-width:0.5;" rx="2.5" ry="2.5"/><text x="103.058" y="31.533" fill="#000" font-size="14">A</text><rect x="229.727" y="10" width="23.338" height="31.609" fill="#E2E2F0" style="stroke:#181818;stroke-width:0.5;" rx="2.5" ry="2.5"/><text x="236.727" y="31.533" fill="#000" font-size="14">B</text><rect x="10" y="225.367" width="43.559" height="31.609" fill="#E2E2F0" style="stroke:#181818;stroke-width:0.5;" rx="2.5" ry="2.5"/><text x="17" y="246.9" fill="#000" font-size="14" textLength="29.559">User</text><rect x="96.058" y="225.367" width="23.338" height="31.609" fill="#E2E2F0" style="stroke:#181818;stroke-width:0.5;" rx="2.5" ry="2.5"/><text x="103.058" y="246.9" fill="#000" font-size="14">A</text><rect x="229.727" y="225.367" width="23.338" height="31.609" fill="#E2E2F0" style="stroke:#181818;stroke-width:0.5;" rx="2.5" ry="2.5"/><text x="236.727" y="246.9" fill="#000" font-size="14">B</text><polygon points="90.727,68.961,100.727,72.961,90.727,76.961,94.727,72.961" fill="#181818" style="stroke:#181818;stroke-width:1;stroke-linejoin:miter;stroke-miterlimit:10;"/><line x1="31.779" y1="72.961" x2="96.727" y2="72.961" style="stroke:#181818;stroke-width:1;"/><text x="38.779" y="68.104" fill="#000" font-size="13" textLength="46.947">DoWork</text><line x1="112.727" y1="103.313" x2="159.727" y2="103.313" style="stroke:#181818;stroke-width:1;"/><line x1="159.727" y1="103.313" x2="159.727" y2="116.313" style="stroke:#181818;stroke-width:1;"/><line x1="118.727" y1="116.313" x2="159.727" y2="116.313" style="stroke:#181818;stroke-width:1;"/><polygon points="128.727,112.313,118.727,116.313,128.727,120.313,124.727,116.313" fill="#181818" style="stroke:#181818;stroke-width:1;stroke-linejoin:miter;stroke-miterlimit:10;"/><text x="124.727" y="98.456" fill="#000" font-size="13" textLength="66.479">Internal call</text><polygon points="224.396,142.664,234.396,146.664,224.396,150.664,228.396,146.664" fill="#181818" style="stroke:#181818;stroke-width:1;stroke-linejoin:miter;stroke-miterlimit:10;"/><line x1="117.727" y1="146.664" x2="230.396" y2="146.664" style="stroke:#181818;stroke-width:1;"/><text x="124.727" y="141.808" fill="#000" font-size="13" textLength="99.011">«createRequest»</text><polygon points="128.727,173.016,118.727,177.016,128.727,181.016,124.727,177.016" fill="#181818" style="stroke:#181818;stroke-width:1;stroke-linejoin:miter;stroke-miterlimit:10;"/><line x1="122.727" y1="177.016" x2="235.396" y2="177.016" style="stroke:#181818;stroke-width:1;stroke-dasharray:2,2;"/><text x="134.727" y="172.159" fill="#000" font-size="13" textLength="94.669">RequestCreated</text><polygon points="42.779,203.367,32.779,207.367,42.779,211.367,38.779,207.367" fill="#181818" style="stroke:#181818;stroke-width:1;stroke-linejoin:miter;stroke-miterlimit:10;"/><line x1="36.779" y1="207.367" x2="101.727" y2="207.367" style="stroke:#181818;stroke-width:1;"/><text x="48.779" y="202.511" fill="#000" font-size="13" textLength="31.078">Done</text><?plantuml-src LOx12i8m38RlVOg0vxt068NMCV2gYEVGvL1Mqvb5dz_L3jno28Jloyy_esWCSKPMk2yafYneBBWM-lp8CXaC6Z-e10vEm-3NCMupBgmaZ0a2fdGGUvJfXkcPkSg-XQw38BJoAxtUj2XO-t_nnaDJGpTy_hcZ6MadxGvNWqlVKfNf0By0?></g></svg>