<svg xmlns="http://www.w3.org/2000/svg" xmlns:xlink="http://www.w3.org/1999/xlink" version="1.1" data-diagram-type="NWDIAG" style="width:237px;height:332px;background:#FFFFFF;" width="237px" height="332px" viewBox="0 0 237 332" zoomAndPan="magnify" preserveAspectRatio="none" contentStyleType="text/css"><?plantuml 1.2026.8?><defs/><g font-family="sans-serif" lengthAdjust="spacing"><text x="5" y="17.457" fill="#000" font-size="12" textLength="50.684">Network1</text><text x="5" y="122.551" fill="#000" font-size="12" textLength="50.684">Network2</text><text x="5" y="227.645" fill="#000" font-size="12" textLength="50.684">Network3</text><rect x="60.684" y="10.047" width="169.348" height="5" fill="#E2E2F0" style="stroke:#181818;stroke-width:1;"/><rect x="117.357" y="115.141" width="70" height="5" fill="#E2E2F0" style="stroke:#181818;stroke-width:1;"/><rect x="60.684" y="220.234" width="169.348" height="5" fill="#E2E2F0" style="stroke:#181818;stroke-width:1;"/><path d="M91.021,15.047 L91.021,45.047" style="stroke:#181818;stroke-width:1;" fill="none"/><path d="M87.021,80.141 L87.021,220.234" style="stroke:#181818;stroke-width:1;" fill="none"/><path d="M147.694,15.047 L147.694,45.047" style="stroke:#181818;stroke-width:1;" fill="none"/><path d="M147.694,80.141 L147.694,115.141" style="stroke:#181818;stroke-width:1;" fill="none"/><path d="M204.031,15.047 L204.031,45.047" style="stroke:#181818;stroke-width:1;" fill="none"/><path d="M200.031,80.141 L200.031,220.234" style="stroke:#181818;stroke-width:1;" fill="none"/><path d="M143.694,120.141 L143.694,150.141" style="stroke:#181818;stroke-width:1;" fill="none"/><path d="M143.694,185.234 L143.694,220.234" style="stroke:#181818;stroke-width:1;" fill="none"/><path d="M91.021,225.234 L91.021,255.234" style="stroke:#181818;stroke-width:1;" fill="none"/><rect x="75.684" y="45.047" width="26.674" height="35.094" fill="#F1F1F1" style="stroke:#181818;stroke-width:0.5;"/><text x="85.684" y="67.504" fill="#000" font-size="12">a</text><rect x="132.357" y="45.047" width="26.674" height="35.094" fill="#F1F1F1" style="stroke:#181818;stroke-width:0.5;"/><text x="142.357" y="67.504" fill="#000" font-size="12">b</text><rect x="189.031" y="45.047" width="26" height="35.094" fill="#F1F1F1" style="stroke:#181818;stroke-width:0.5;"/><text x="199.031" y="67.504" fill="#000" font-size="12">c</text><rect x="132.357" y="150.141" width="26.674" height="35.094" fill="#F1F1F1" style="stroke:#181818;stroke-width:0.5;"/><text x="142.357" y="172.598" fill="#000" font-size="12">d</text><rect x="75.684" y="255.234" width="26.674" height="35.094" fill="#F1F1F1" style="stroke:#181818;stroke-width:0.5;"/><text x="85.684" y="277.691" fill="#000" font-size="12">e</text><?plantuml-src SoWkIImgoIjFoKnCvu9G2jLS2WfvgINb-KNP2duGsX0igA2GQ0scaY1KCeYgnLHj15KDLPQ2Gvangg79IAeL558Xccgv75BpKg3kupBKCp8mCjEp0000?></g></svg>