<svg xmlns="http://www.w3.org/2000/svg" xmlns:xlink="http://www.w3.org/1999/xlink" version="1.1" data-diagram-type="ACTIVITY" style="width:463px;height:210px;background:#FFFFFF;" width="463px" height="210px" viewBox="0 0 463 210" zoomAndPan="magnify" preserveAspectRatio="none" contentStyleType="text/css"><?plantuml 1.2026.8?><defs/><g font-family="sans-serif" lengthAdjust="spacing"><ellipse cx="237.542" cy="25" rx="10" ry="10" fill="#222" style="stroke:#222;stroke-width:1;"/><path d="M15,59.371 L15,85.723 L158.846,85.723 L158.846,69.371 L148.846,59.371 L15,59.371" style="stroke:#181818;stroke-width:0.5;" fill="#FEFFDD"/><path d="M148.846,59.371 L148.846,69.371 L158.846,69.371 L148.846,59.371" style="stroke:#181818;stroke-width:0.5;" fill="#FEFFDD"/><text x="21" y="77.866" fill="#000" font-size="13" textLength="122.846">This is a floating note</text><rect x="178.195" y="55" width="118.695" height="35.094" fill="#F1F1F1" style="stroke:#181818;stroke-width:0.5;" rx="12.5" ry="12.5"/><text x="188.195" y="77.457" fill="#000" font-size="12" textLength="98.695">Collect the metrics</text><path d="M316.239,106.289 L316.239,148.992 L442,148.992 L442,116.289 L432,106.289 L316.239,106.289" style="stroke:#181818;stroke-width:0.5;" fill="#FEFFDD"/><path d="M432,106.289 L432,116.289 L442,116.289 L432,106.289" style="stroke:#181818;stroke-width:0.5;" fill="#FEFFDD"/><text x="322.239" y="124.784" fill="#000" font-size="13" textLength="99.011">Aggregation runs</text><text x="322.239" y="141.136" fill="#000" font-size="13" textLength="104.762">every five minutes</text><rect x="168.846" y="110.094" width="137.393" height="35.094" fill="#F1F1F1" style="stroke:#181818;stroke-width:0.5;" rx="12.5" ry="12.5"/><text x="178.846" y="132.551" fill="#000" font-size="12" textLength="117.393">Aggregate the metrics</text><ellipse cx="237.542" cy="179.992" rx="11" ry="11" fill="none" style="stroke:#222;stroke-width:1;"/><ellipse cx="237.542" cy="179.992" rx="6" ry="6" fill="#222" style="stroke:#222;stroke-width:1;"/><line x1="237.542" y1="35" x2="237.542" y2="55" style="stroke:#181818;stroke-width:1;"/><polygon points="233.542,45,237.542,55,241.542,45,237.542,49" fill="#181818" style="stroke:#181818;stroke-width:1;stroke-linejoin:miter;stroke-miterlimit:10;"/><line x1="237.542" y1="90.094" x2="237.542" y2="110.094" style="stroke:#181818;stroke-width:1;"/><polygon points="233.542,100.094,237.542,110.094,241.542,100.094,237.542,104.094" fill="#181818" style="stroke:#181818;stroke-width:1;stroke-linejoin:miter;stroke-miterlimit:10;"/><line x1="237.542" y1="145.188" x2="237.542" y2="168.992" style="stroke:#181818;stroke-width:1;"/><polygon points="233.542,158.992,237.542,168.992,241.542,158.992,237.542,162.992" fill="#181818" style="stroke:#181818;stroke-width:1;stroke-linejoin:miter;stroke-miterlimit:10;"/><?plantuml-src VOn12W8n40JlUKM_8vx4B_Y1i4wIWJYHcTu5Vsz0F7XPw5DtTGMBC-NR74CsWbtm5BfkSKbrp4Ar1fiK3AdCk7SDh1JyhIbVMtDfPO4d3jVMcO0VhDFWkyMgv11_e-gnpcex9PBOuoiFpjS7?></g></svg>