<svg xmlns="http://www.w3.org/2000/svg" xmlns:xlink="http://www.w3.org/1999/xlink" version="1.1" data-diagram-type="WBS" style="width:286px;height:451px;background:#FFFFFF;" width="286px" height="451px" viewBox="0 0 286 451" zoomAndPan="magnify" preserveAspectRatio="none" contentStyleType="text/css"><?plantuml 1.2026.8?><defs/><g font-family="sans-serif" lengthAdjust="spacing"><line x1="78.685" y1="79.094" x2="78.685" y2="99.094" style="stroke:#008000;stroke-width:0.5;stroke-dasharray:4,4;"/><rect x="20" y="99.094" width="117.369" height="84.375" fill="#FFD700" style="stroke:#00F;stroke-width:3;" rx="20" ry="20"/><text x="32" y="123.551" fill="#000" font-size="12" textLength="58.014">sometimes</text><text x="90.014" y="123.551" fill="#000" font-size="12"> </text><text x="93.348" y="123.551" fill="#000" font-size="12">i</text><text x="96.014" y="123.551" fill="#000" font-size="12"> </text><text x="99.348" y="123.551" fill="#000" font-size="12" textLength="26.021">have</text><text x="42.33" y="138.645" fill="#000" font-size="12" textLength="26.695">node</text><text x="69.025" y="138.645" fill="#000" font-size="12"> </text><text x="72.359" y="138.645" fill="#000" font-size="12" textLength="9.34">in</text><text x="81.699" y="138.645" fill="#000" font-size="12"> </text><text x="85.033" y="138.645" fill="#000" font-size="12" textLength="24.006">wich</text><text x="109.039" y="138.645" fill="#000" font-size="12"> </text><text x="112.373" y="138.645" fill="#000" font-size="12">i</text><text x="40.001" y="153.738" fill="#000" font-size="12" textLength="25.348">want</text><text x="65.349" y="153.738" fill="#000" font-size="12"> </text><text x="68.683" y="153.738" fill="#000" font-size="12" textLength="10.008">to</text><text x="78.69" y="153.738" fill="#000" font-size="12"> </text><text x="82.024" y="153.738" fill="#000" font-size="12" textLength="25.336">write</text><text x="107.36" y="153.738" fill="#000" font-size="12"> </text><text x="110.694" y="153.738" fill="#000" font-size="12">a</text><text x="56.003" y="168.832" fill="#000" font-size="12" textLength="22.688">long</text><text x="78.69" y="168.832" fill="#000" font-size="12"> </text><text x="82.024" y="168.832" fill="#000" font-size="12" textLength="19.342">text</text><line x1="78.685" y1="221.109" x2="88.685" y2="221.109" style="stroke:#008000;stroke-width:0.5;stroke-dasharray:4,4;"/><rect x="88.685" y="186.469" width="94.025" height="69.281" fill="#ADD8E6" style="stroke:#00F;stroke-width:3;" rx="20" ry="20"/><text x="100.685" y="210.926" fill="#000" font-size="12" textLength="18.674">this</text><text x="119.358" y="210.926" fill="#000" font-size="12"> </text><text x="122.692" y="210.926" fill="#000" font-size="12" textLength="35.344">results</text><text x="158.036" y="210.926" fill="#000" font-size="12"> </text><text x="161.37" y="210.926" fill="#000" font-size="12" textLength="9.34">in</text><text x="106.345" y="226.02" fill="#000" font-size="12" textLength="28.676">really</text><text x="135.021" y="226.02" fill="#000" font-size="12"> </text><text x="138.354" y="226.02" fill="#000" font-size="12" textLength="26.695">huge</text><text x="114.021" y="241.113" fill="#000" font-size="12" textLength="43.354">diagram</text><line x1="135.697" y1="293.391" x2="145.697" y2="293.391" style="stroke:#008000;stroke-width:0.5;stroke-dasharray:4,4;"/><rect x="145.697" y="258.75" width="120.035" height="69.281" fill="#FFD700" style="stroke:#FFD700;stroke-width:3;" rx="20" ry="20"/><text x="165.027" y="283.207" fill="#000" font-size="12" textLength="10.008">of</text><text x="175.035" y="283.207" fill="#000" font-size="12"> </text><text x="178.369" y="283.207" fill="#000" font-size="12" textLength="39.352">course,</text><text x="217.721" y="283.207" fill="#000" font-size="12"> </text><text x="221.055" y="283.207" fill="#000" font-size="12">i</text><text x="223.721" y="283.207" fill="#000" font-size="12"> </text><text x="227.055" y="283.207" fill="#000" font-size="12" textLength="19.348">can</text><text x="157.697" y="298.301" fill="#000" font-size="12" textLength="36.68">explicit</text><text x="194.377" y="298.301" fill="#000" font-size="12"> </text><text x="197.711" y="298.301" fill="#000" font-size="12" textLength="21.34">split</text><text x="219.051" y="298.301" fill="#000" font-size="12"> </text><text x="222.385" y="298.301" fill="#000" font-size="12" textLength="21.34">with</text><text x="243.725" y="298.301" fill="#000" font-size="12"> </text><text x="247.059" y="298.301" fill="#000" font-size="12">a</text><text x="183.701" y="313.395" fill="#000" font-size="12" textLength="22.014">new</text><text x="205.715" y="313.395" fill="#000" font-size="12"> </text><text x="209.049" y="313.395" fill="#000" font-size="12" textLength="18.68">line</text><line x1="135.697" y1="380.766" x2="145.697" y2="380.766" style="stroke:#008000;stroke-width:0.5;stroke-dasharray:4,4;"/><rect x="145.697" y="331.031" width="117.387" height="99.469" fill="#FFD700" style="stroke:#FFD700;stroke-width:3;" rx="20" ry="20"/><text x="167.031" y="355.488" fill="#000" font-size="12" textLength="16.682">but</text><text x="183.713" y="355.488" fill="#000" font-size="12"> </text><text x="187.047" y="355.488" fill="#000" font-size="12" textLength="6">it</text><text x="193.047" y="355.488" fill="#000" font-size="12"> </text><text x="196.381" y="355.488" fill="#000" font-size="12" textLength="28.688">could</text><text x="225.068" y="355.488" fill="#000" font-size="12"> </text><text x="228.402" y="355.488" fill="#000" font-size="12" textLength="13.348">be</text><text x="160.706" y="370.582" fill="#000" font-size="12" textLength="22.014">cool</text><text x="182.72" y="370.582" fill="#000" font-size="12"> </text><text x="186.054" y="370.582" fill="#000" font-size="12" textLength="6">if</text><text x="192.054" y="370.582" fill="#000" font-size="12"> </text><text x="195.388" y="370.582" fill="#000" font-size="12" textLength="52.688">PlantUML</text><text x="161.702" y="385.676" fill="#000" font-size="12" textLength="21.34">was</text><text x="183.042" y="385.676" fill="#000" font-size="12"> </text><text x="186.376" y="385.676" fill="#000" font-size="12" textLength="22.688">able</text><text x="209.063" y="385.676" fill="#000" font-size="12"> </text><text x="212.397" y="385.676" fill="#000" font-size="12" textLength="10.008">to</text><text x="222.405" y="385.676" fill="#000" font-size="12"> </text><text x="225.739" y="385.676" fill="#000" font-size="12" textLength="21.34">split</text><text x="157.697" y="400.77" fill="#000" font-size="12" textLength="22.688">long</text><text x="180.385" y="400.77" fill="#000" font-size="12"> </text><text x="183.719" y="400.77" fill="#000" font-size="12" textLength="28.014">lines,</text><text x="211.732" y="400.77" fill="#000" font-size="12"> </text><text x="215.066" y="400.77" fill="#000" font-size="12" textLength="36.018">maybe</text><text x="167.365" y="415.863" fill="#000" font-size="12" textLength="21.34">with</text><text x="188.705" y="415.863" fill="#000" font-size="12"> </text><text x="192.039" y="415.863" fill="#000" font-size="12" textLength="13.348">an</text><text x="205.387" y="415.863" fill="#000" font-size="12"> </text><text x="208.721" y="415.863" fill="#000" font-size="12" textLength="32.695">option</text><line x1="135.697" y1="255.75" x2="135.697" y2="380.766" style="stroke:#008000;stroke-width:0.5;stroke-dasharray:4,4;"/><line x1="78.685" y1="183.469" x2="78.685" y2="221.109" style="stroke:#008000;stroke-width:0.5;stroke-dasharray:4,4;"/><line x1="78.685" y1="79.094" x2="142.866" y2="79.094" style="stroke:#008000;stroke-width:0.5;stroke-dasharray:4,4;"/><rect x="118.031" y="20" width="49.67" height="39.094" fill="#FFD700" style="stroke:#00F;stroke-width:3;" rx="20" ry="20"/><text x="130.031" y="44.457" fill="#000" font-size="12" textLength="11.332">Hi</text><text x="141.363" y="44.457" fill="#000" font-size="12"> </text><text x="144.697" y="44.457" fill="#000" font-size="12" textLength="11.004">=)</text><line x1="142.866" y1="59.094" x2="142.866" y2="79.094" style="stroke:#008000;stroke-width:0.5;stroke-dasharray:4,4;"/><?plantuml-src RLBBRjmm3BphA-RO6C7MkqcB8as29EqXXwG8-a3FiiMrYSZIGgBhtHRxxwKVQ8kW1ziKoHaEHxx9OfCCLJQNMGwUhet67zasoNRuPO0G7Kq1y6ITuz1WlPcEZpOr770s7UvZufynYFMtdflGKH3K-g8qbHyuq8VeOqBbU_gJ-jfo_HmePvojoYbxP-ld9iK-kBczYTvDXSzpBWLAE2yN0Nlk-kuxEscnBiVaKH-RKXmMoUEGB-DUEF_Fq7BrveMw9X65XUV2qKxQLvkJXUkbDDspbMMTiT-JtNxwwzO_fFCEHtCqbwyNbmlSCwvEJ54Wnuw4EyfWjFO7pPQhimFNhUO6grvAn91O21O-wXq8xKN11QJbZ4Ivzv97K2Bh_G5jtn3SV8zZNt4HjwXZdpATAcTj0sY_yrop8EjNT9gwQ4sWGJSBz7v2eUe5MbIaTwX8W-Z1MpnvLVNjyK7LPTXA3LQ5Cz6aRwJ8f-ZiGK4pTK3S2STWRYYuyOypwzMctBnTlViD?></g></svg>