<svg xmlns="http://www.w3.org/2000/svg" xmlns:xlink="http://www.w3.org/1999/xlink" version="1.1" data-diagram-type="GANTT" style="width:542px;height:115px;background:#FFFFFF;" width="542px" height="115px" viewBox="0 0 542 115" zoomAndPan="magnify" preserveAspectRatio="none" contentStyleType="text/css"><?plantuml 1.2026.8?><defs/><g font-family="sans-serif" lengthAdjust="spacing"><line x1="0" y1="0" x2="121.167" y2="0" style="stroke:#C0C0C0;stroke-width:1;"/><line x1="0" y1="39" x2="121.167" y2="39" style="stroke:#C0C0C0;stroke-width:1;"/><line x1="0" y1="74.672" x2="121.167" y2="74.672" style="stroke:#C0C0C0;stroke-width:1;"/><line x1="0" y1="0" x2="0" y2="74.672" style="stroke:#C0C0C0;stroke-width:1;"/><line x1="36.685" y1="0" x2="36.685" y2="74.672" style="stroke:#C0C0C0;stroke-width:1;"/><line x1="73.369" y1="0" x2="73.369" y2="74.672" style="stroke:#C0C0C0;stroke-width:1;"/><line x1="121.167" y1="0" x2="121.167" y2="74.672" style="stroke:#C0C0C0;stroke-width:1;"/><text x="5" y="23.592" fill="#000" font-size="10" textLength="21.118">Start</text><text x="41.685" y="23.592" fill="#000" font-size="10" textLength="17.793">End</text><text x="78.369" y="23.592" fill="#000" font-size="10" textLength="37.798">Duration</text><text x="5" y="52.01" fill="#000" font-size="10" textLength="21.123">Jul 1</text><text x="41.685" y="52.01" fill="#000" font-size="10" textLength="26.685">Jul 15</text><text x="78.369" y="52.01" fill="#000" font-size="10" textLength="35.024">15 days</text><text x="5" y="69.846" fill="#000" font-size="10" textLength="26.685">Jul 16</text><text x="41.685" y="69.846" fill="#000" font-size="10" textLength="26.685">Jul 25</text><text x="78.369" y="69.846" fill="#000" font-size="10" textLength="35.024">10 days</text><text x="294.146" y="12.457" fill="#000" font-size="12" textLength="54.041" font-weight="700">July 2020</text><text x="121.667" y="24.381" fill="#000" font-size="10" textLength="15">We</text><text x="139.332" y="24.381" fill="#000" font-size="10" textLength="11.67">Th</text><text x="156.448" y="24.381" fill="#000" font-size="10" textLength="9.438">Fr</text><text x="171.051" y="24.381" fill="#000" font-size="10" textLength="12.231">Sa</text><text x="187.051" y="24.381" fill="#000" font-size="10" textLength="12.231">Su</text><text x="202.221" y="24.381" fill="#000" font-size="10" textLength="13.892">Mo</text><text x="219.332" y="24.381" fill="#000" font-size="10" textLength="11.67">Tu</text><text x="233.667" y="24.381" fill="#000" font-size="10" textLength="15">We</text><text x="251.332" y="24.381" fill="#000" font-size="10" textLength="11.67">Th</text><text x="268.448" y="24.381" fill="#000" font-size="10" textLength="9.438">Fr</text><text x="283.051" y="24.381" fill="#000" font-size="10" textLength="12.231">Sa</text><text x="299.051" y="24.381" fill="#000" font-size="10" textLength="12.231">Su</text><text x="314.221" y="24.381" fill="#000" font-size="10" textLength="13.892">Mo</text><text x="331.332" y="24.381" fill="#000" font-size="10" textLength="11.67">Tu</text><text x="345.667" y="24.381" fill="#000" font-size="10" textLength="15">We</text><text x="363.332" y="24.381" fill="#000" font-size="10" textLength="11.67">Th</text><text x="380.448" y="24.381" fill="#000" font-size="10" textLength="9.438">Fr</text><text x="395.051" y="24.381" fill="#000" font-size="10" textLength="12.231">Sa</text><text x="411.051" y="24.381" fill="#000" font-size="10" textLength="12.231">Su</text><text x="426.221" y="24.381" fill="#000" font-size="10" textLength="13.892">Mo</text><text x="443.332" y="24.381" fill="#000" font-size="10" textLength="11.67">Tu</text><text x="457.667" y="24.381" fill="#000" font-size="10" textLength="15">We</text><text x="475.332" y="24.381" fill="#000" font-size="10" textLength="11.67">Th</text><text x="492.448" y="24.381" fill="#000" font-size="10" textLength="9.438">Fr</text><text x="507.051" y="24.381" fill="#000" font-size="10" textLength="12.231">Sa</text><text x="126.386" y="36.381" fill="#000" font-size="10">1</text><text x="142.386" y="36.381" fill="#000" font-size="10">2</text><text x="158.386" y="36.381" fill="#000" font-size="10">3</text><text x="174.386" y="36.381" fill="#000" font-size="10">4</text><text x="190.386" y="36.381" fill="#000" font-size="10">5</text><text x="206.386" y="36.381" fill="#000" font-size="10">6</text><text x="222.386" y="36.381" fill="#000" font-size="10">7</text><text x="238.386" y="36.381" fill="#000" font-size="10">8</text><text x="254.386" y="36.381" fill="#000" font-size="10">9</text><text x="267.605" y="36.381" fill="#000" font-size="10" textLength="11.123">10</text><text x="283.605" y="36.381" fill="#000" font-size="10" textLength="11.123">11</text><text x="299.605" y="36.381" fill="#000" font-size="10" textLength="11.123">12</text><text x="315.605" y="36.381" fill="#000" font-size="10" textLength="11.123">13</text><text x="331.605" y="36.381" fill="#000" font-size="10" textLength="11.123">14</text><text x="347.605" y="36.381" fill="#000" font-size="10" textLength="11.123">15</text><text x="363.605" y="36.381" fill="#000" font-size="10" textLength="11.123">16</text><text x="379.605" y="36.381" fill="#000" font-size="10" textLength="11.123">17</text><text x="395.605" y="36.381" fill="#000" font-size="10" textLength="11.123">18</text><text x="411.605" y="36.381" fill="#000" font-size="10" textLength="11.123">19</text><text x="427.605" y="36.381" fill="#000" font-size="10" textLength="11.123">20</text><text x="443.605" y="36.381" fill="#000" font-size="10" textLength="11.123">21</text><text x="459.605" y="36.381" fill="#000" font-size="10" textLength="11.123">22</text><text x="475.605" y="36.381" fill="#000" font-size="10" textLength="11.123">23</text><text x="491.605" y="36.381" fill="#000" font-size="10" textLength="11.123">24</text><text x="507.605" y="36.381" fill="#000" font-size="10" textLength="11.123">25</text><line x1="121.167" y1="39" x2="121.167" y2="74.672" style="stroke:#C0C0C0;stroke-width:1;"/><line x1="137.167" y1="39" x2="137.167" y2="74.672" style="stroke:#C0C0C0;stroke-width:1;"/><line x1="153.167" y1="39" x2="153.167" y2="74.672" style="stroke:#C0C0C0;stroke-width:1;"/><line x1="169.167" y1="39" x2="169.167" y2="74.672" style="stroke:#C0C0C0;stroke-width:1;"/><line x1="185.167" y1="39" x2="185.167" y2="74.672" style="stroke:#C0C0C0;stroke-width:1;"/><line x1="201.167" y1="39" x2="201.167" y2="74.672" style="stroke:#C0C0C0;stroke-width:1;"/><line x1="217.167" y1="39" x2="217.167" y2="74.672" style="stroke:#C0C0C0;stroke-width:1;"/><line x1="233.167" y1="39" x2="233.167" y2="74.672" style="stroke:#C0C0C0;stroke-width:1;"/><line x1="249.167" y1="39" x2="249.167" y2="74.672" style="stroke:#C0C0C0;stroke-width:1;"/><line x1="265.167" y1="39" x2="265.167" y2="74.672" style="stroke:#C0C0C0;stroke-width:1;"/><line x1="281.167" y1="39" x2="281.167" y2="74.672" style="stroke:#C0C0C0;stroke-width:1;"/><line x1="297.167" y1="39" x2="297.167" y2="74.672" style="stroke:#C0C0C0;stroke-width:1;"/><line x1="313.167" y1="39" x2="313.167" y2="74.672" style="stroke:#C0C0C0;stroke-width:1;"/><line x1="329.167" y1="39" x2="329.167" y2="74.672" style="stroke:#C0C0C0;stroke-width:1;"/><line x1="345.167" y1="39" x2="345.167" y2="74.672" style="stroke:#C0C0C0;stroke-width:1;"/><line x1="361.167" y1="39" x2="361.167" y2="74.672" style="stroke:#C0C0C0;stroke-width:1;"/><line x1="377.167" y1="39" x2="377.167" y2="74.672" style="stroke:#C0C0C0;stroke-width:1;"/><line x1="393.167" y1="39" x2="393.167" y2="74.672" style="stroke:#C0C0C0;stroke-width:1;"/><line x1="409.167" y1="39" x2="409.167" y2="74.672" style="stroke:#C0C0C0;stroke-width:1;"/><line x1="425.167" y1="39" x2="425.167" y2="74.672" style="stroke:#C0C0C0;stroke-width:1;"/><line x1="441.167" y1="39" x2="441.167" y2="74.672" style="stroke:#C0C0C0;stroke-width:1;"/><line x1="457.167" y1="39" x2="457.167" y2="74.672" style="stroke:#C0C0C0;stroke-width:1;"/><line x1="473.167" y1="39" x2="473.167" y2="74.672" style="stroke:#C0C0C0;stroke-width:1;"/><line x1="489.167" y1="39" x2="489.167" y2="74.672" style="stroke:#C0C0C0;stroke-width:1;"/><line x1="505.167" y1="39" x2="505.167" y2="74.672" style="stroke:#C0C0C0;stroke-width:1;"/><line x1="521.167" y1="39" x2="521.167" y2="74.672" style="stroke:#C0C0C0;stroke-width:1;"/><line x1="121.167" y1="39" x2="521.167" y2="39" style="stroke:#C0C0C0;stroke-width:1;"/><line x1="121.167" y1="74.672" x2="521.167" y2="74.672" style="stroke:#C0C0C0;stroke-width:1;"/><rect x="123.167" y="41" width="236" height="13.836" fill="#E2E2F0" style="stroke:none;"/><rect x="123.167" y="41" width="236" height="13.836" fill="none" style="stroke:#181818;stroke-width:1;"/><rect x="363.167" y="58.836" width="156" height="13.836" fill="#E2E2F0" style="stroke:none;"/><rect x="363.167" y="58.836" width="156" height="13.836" fill="none" style="stroke:#181818;stroke-width:1;"/><text x="127.167" y="52.419" fill="#000" font-size="11" textLength="82.554">Prototype design</text><text x="367.167" y="70.255" fill="#000" font-size="11" textLength="70.313">Test prototype</text><text x="121.667" y="85.053" fill="#000" font-size="10" textLength="15">We</text><text x="139.332" y="85.053" fill="#000" font-size="10" textLength="11.67">Th</text><text x="156.448" y="85.053" fill="#000" font-size="10" textLength="9.438">Fr</text><text x="171.051" y="85.053" fill="#000" font-size="10" textLength="12.231">Sa</text><text x="187.051" y="85.053" fill="#000" font-size="10" textLength="12.231">Su</text><text x="202.221" y="85.053" fill="#000" font-size="10" textLength="13.892">Mo</text><text x="219.332" y="85.053" fill="#000" font-size="10" textLength="11.67">Tu</text><text x="233.667" y="85.053" fill="#000" font-size="10" textLength="15">We</text><text x="251.332" y="85.053" fill="#000" font-size="10" textLength="11.67">Th</text><text x="268.448" y="85.053" fill="#000" font-size="10" textLength="9.438">Fr</text><text x="283.051" y="85.053" fill="#000" font-size="10" textLength="12.231">Sa</text><text x="299.051" y="85.053" fill="#000" font-size="10" textLength="12.231">Su</text><text x="314.221" y="85.053" fill="#000" font-size="10" textLength="13.892">Mo</text><text x="331.332" y="85.053" fill="#000" font-size="10" textLength="11.67">Tu</text><text x="345.667" y="85.053" fill="#000" font-size="10" textLength="15">We</text><text x="363.332" y="85.053" fill="#000" font-size="10" textLength="11.67">Th</text><text x="380.448" y="85.053" fill="#000" font-size="10" textLength="9.438">Fr</text><text x="395.051" y="85.053" fill="#000" font-size="10" textLength="12.231">Sa</text><text x="411.051" y="85.053" fill="#000" font-size="10" textLength="12.231">Su</text><text x="426.221" y="85.053" fill="#000" font-size="10" textLength="13.892">Mo</text><text x="443.332" y="85.053" fill="#000" font-size="10" textLength="11.67">Tu</text><text x="457.667" y="85.053" fill="#000" font-size="10" textLength="15">We</text><text x="475.332" y="85.053" fill="#000" font-size="10" textLength="11.67">Th</text><text x="492.448" y="85.053" fill="#000" font-size="10" textLength="9.438">Fr</text><text x="507.051" y="85.053" fill="#000" font-size="10" textLength="12.231">Sa</text><text x="126.386" y="99.053" fill="#000" font-size="10">1</text><text x="142.386" y="99.053" fill="#000" font-size="10">2</text><text x="158.386" y="99.053" fill="#000" font-size="10">3</text><text x="174.386" y="99.053" fill="#000" font-size="10">4</text><text x="190.386" y="99.053" fill="#000" font-size="10">5</text><text x="206.386" y="99.053" fill="#000" font-size="10">6</text><text x="222.386" y="99.053" fill="#000" font-size="10">7</text><text x="238.386" y="99.053" fill="#000" font-size="10">8</text><text x="254.386" y="99.053" fill="#000" font-size="10">9</text><text x="267.605" y="99.053" fill="#000" font-size="10" textLength="11.123">10</text><text x="283.605" y="99.053" fill="#000" font-size="10" textLength="11.123">11</text><text x="299.605" y="99.053" fill="#000" font-size="10" textLength="11.123">12</text><text x="315.605" y="99.053" fill="#000" font-size="10" textLength="11.123">13</text><text x="331.605" y="99.053" fill="#000" font-size="10" textLength="11.123">14</text><text x="347.605" y="99.053" fill="#000" font-size="10" textLength="11.123">15</text><text x="363.605" y="99.053" fill="#000" font-size="10" textLength="11.123">16</text><text x="379.605" y="99.053" fill="#000" font-size="10" textLength="11.123">17</text><text x="395.605" y="99.053" fill="#000" font-size="10" textLength="11.123">18</text><text x="411.605" y="99.053" fill="#000" font-size="10" textLength="11.123">19</text><text x="427.605" y="99.053" fill="#000" font-size="10" textLength="11.123">20</text><text x="443.605" y="99.053" fill="#000" font-size="10" textLength="11.123">21</text><text x="459.605" y="99.053" fill="#000" font-size="10" textLength="11.123">22</text><text x="475.605" y="99.053" fill="#000" font-size="10" textLength="11.123">23</text><text x="491.605" y="99.053" fill="#000" font-size="10" textLength="11.123">24</text><text x="507.605" y="99.053" fill="#000" font-size="10" textLength="11.123">25</text><text x="294.146" y="114.129" fill="#000" font-size="12" textLength="54.041" font-weight="700">July 2020</text><?plantuml-src SoWkIImgIK_CAodX2YZApqfDBb402nKh61aO6UWQcEiQ67950wLAyaig2r8LKbABCzFpOXMAKWjBCujIYnKCJHLI4YkBkQ93KejB50fW2f5L6E1GWMQHeHcNGsfU2iGnN8PwG74pFGi0?></g></svg>