<svg xmlns="http://www.w3.org/2000/svg" xmlns:xlink="http://www.w3.org/1999/xlink" version="1.1" data-diagram-type="ACTIVITY" style="width:453px;height:440px;background:#FFFFFF;" width="453px" height="440px" viewBox="0 0 453 440" zoomAndPan="magnify" preserveAspectRatio="none" contentStyleType="text/css"><?plantuml 1.2026.8?><defs/><g font-family="sans-serif" lengthAdjust="spacing"><rect x="20" y="17.455" width="406.934" height="22.641" fill="none" style="stroke:none;"/><ellipse cx="109.682" cy="55.096" rx="10" ry="10" fill="#222" style="stroke:#222;stroke-width:1;"/><rect x="59.325" y="85.096" width="100.713" height="35.094" fill="#F1F1F1" style="stroke:#181818;stroke-width:0.5;" rx="12.5" ry="12.5"/><text x="69.325" y="107.553" fill="#000" font-size="12" textLength="80.713">Open the ticket</text><rect x="26" y="235.283" width="146.038" height="6" fill="#555" style="stroke:#555;stroke-width:1;" rx="2.5" ry="2.5"/><rect x="38" y="261.283" width="56.018" height="35.094" fill="#F1F1F1" style="stroke:#181818;stroke-width:0.5;" rx="12.5" ry="12.5"/><text x="48" y="283.74" fill="#000" font-size="12" textLength="36.018">Report</text><line x1="20" y1="17.455" x2="20" y2="419.471" style="stroke:#000;stroke-width:1.5;"/><line x1="204.047" y1="140.189" x2="286.403" y2="140.189" style="stroke:#181818;stroke-width:1.5;"/><rect x="182.038" y="160.189" width="44.018" height="35.094" fill="#F1F1F1" style="stroke:#181818;stroke-width:0.5;" rx="12.5" ry="12.5"/><text x="192.038" y="182.646" fill="#000" font-size="12" textLength="24.018">Plan</text><rect x="199.376" y="342.377" width="102.037" height="35.094" fill="#F1F1F1" style="stroke:#181818;stroke-width:0.5;" rx="12.5" ry="12.5"/><text x="209.376" y="364.834" fill="#000" font-size="12" textLength="82.037">Close the ticket</text><ellipse cx="250.395" cy="408.471" rx="11" ry="11" fill="none" style="stroke:#222;stroke-width:1;"/><ellipse cx="250.395" cy="408.471" rx="6" ry="6" fill="#222" style="stroke:#222;stroke-width:1;"/><line x1="176.038" y1="17.455" x2="176.038" y2="419.471" style="stroke:#000;stroke-width:1.5;"/><rect x="341.413" y="160.189" width="64.695" height="35.094" fill="#F1F1F1" style="stroke:#181818;stroke-width:0.5;" rx="12.5" ry="12.5"/><text x="351.413" y="182.646" fill="#000" font-size="12" textLength="44.695">Approve</text><line x1="327.413" y1="215.283" x2="373.761" y2="215.283" style="stroke:#181818;stroke-width:1.5;"/><rect x="350.088" y="261.283" width="59.346" height="35.094" fill="#F1F1F1" style="stroke:#181818;stroke-width:0.5;" rx="12.5" ry="12.5"/><text x="360.088" y="283.74" fill="#000" font-size="12" textLength="39.346">Review</text><rect x="311.413" y="316.377" width="110.021" height="6" fill="#555" style="stroke:#555;stroke-width:1;" rx="2.5" ry="2.5"/><line x1="305.413" y1="17.455" x2="305.413" y2="419.471" style="stroke:#000;stroke-width:1.5;"/><line x1="425.434" y1="17.455" x2="425.434" y2="419.471" style="stroke:#000;stroke-width:1.5;"/><line x1="109.682" y1="65.096" x2="109.682" y2="85.096" style="stroke:#181818;stroke-width:1;"/><polygon points="105.682,75.096,109.682,85.096,113.682,75.096,109.682,79.096" fill="#181818" style="stroke:#181818;stroke-width:1;stroke-linejoin:miter;stroke-miterlimit:10;"/><line x1="66.009" y1="241.283" x2="66.009" y2="261.283" style="stroke:#181818;stroke-width:1;"/><polygon points="62.009,251.283,66.009,261.283,70.009,251.283,66.009,255.283" fill="#181818" style="stroke:#181818;stroke-width:1;stroke-linejoin:miter;stroke-miterlimit:10;"/><line x1="204.047" y1="141.689" x2="204.047" y2="160.189" style="stroke:#181818;stroke-width:1;"/><polygon points="200.047,150.189,204.047,160.189,208.047,150.189,204.047,154.189" fill="#181818" style="stroke:#181818;stroke-width:1;stroke-linejoin:miter;stroke-miterlimit:10;"/><line x1="250.395" y1="377.471" x2="250.395" y2="397.471" style="stroke:#181818;stroke-width:1;"/><polygon points="246.395,387.471,250.395,397.471,254.395,387.471,250.395,391.471" fill="#181818" style="stroke:#181818;stroke-width:1;stroke-linejoin:miter;stroke-miterlimit:10;"/><line x1="373.761" y1="195.283" x2="373.761" y2="215.283" style="stroke:#181818;stroke-width:1;"/><polygon points="369.761,205.283,373.761,215.283,377.761,205.283,373.761,209.283" fill="#181818" style="stroke:#181818;stroke-width:1;stroke-linejoin:miter;stroke-miterlimit:10;"/><line x1="286.403" y1="141.689" x2="286.403" y2="145.189" style="stroke:#181818;stroke-width:1;"/><line x1="286.403" y1="145.189" x2="373.761" y2="145.189" style="stroke:#181818;stroke-width:1;"/><line x1="373.761" y1="145.189" x2="373.761" y2="160.189" style="stroke:#181818;stroke-width:1;"/><polygon points="369.761,150.189,373.761,160.189,377.761,150.189,373.761,154.189" fill="#181818" style="stroke:#181818;stroke-width:1;stroke-linejoin:miter;stroke-miterlimit:10;"/><line x1="204.047" y1="195.283" x2="204.047" y2="201.283" style="stroke:#181818;stroke-width:1;"/><line x1="204.047" y1="201.283" x2="327.413" y2="201.283" style="stroke:#181818;stroke-width:1;"/><line x1="327.413" y1="201.283" x2="327.413" y2="215.283" style="stroke:#181818;stroke-width:1;"/><polygon points="323.413,205.283,327.413,215.283,331.413,205.283,327.413,209.283" fill="#181818" style="stroke:#181818;stroke-width:1;stroke-linejoin:miter;stroke-miterlimit:10;"/><line x1="109.682" y1="120.189" x2="109.682" y2="125.189" style="stroke:#181818;stroke-width:1;"/><line x1="109.682" y1="125.189" x2="250.395" y2="125.189" style="stroke:#181818;stroke-width:1;"/><line x1="250.395" y1="125.189" x2="250.395" y2="140.189" style="stroke:#181818;stroke-width:1;"/><polygon points="246.395,130.189,250.395,140.189,254.395,130.189,250.395,134.189" fill="#181818" style="stroke:#181818;stroke-width:1;stroke-linejoin:miter;stroke-miterlimit:10;"/><line x1="151.69" y1="241.283" x2="151.69" y2="245.283" style="stroke:#181818;stroke-width:1;"/><line x1="151.69" y1="245.283" x2="379.761" y2="245.283" style="stroke:#181818;stroke-width:1;"/><line x1="379.761" y1="245.283" x2="379.761" y2="261.283" style="stroke:#181818;stroke-width:1;"/><polygon points="375.761,251.283,379.761,261.283,383.761,251.283,379.761,255.283" fill="#181818" style="stroke:#181818;stroke-width:1;stroke-linejoin:miter;stroke-miterlimit:10;"/><line x1="66.009" y1="296.377" x2="66.009" y2="302.377" style="stroke:#181818;stroke-width:1;"/><line x1="66.009" y1="302.377" x2="330.088" y2="302.377" style="stroke:#181818;stroke-width:1;"/><line x1="330.088" y1="302.377" x2="330.088" y2="316.377" style="stroke:#181818;stroke-width:1;"/><polygon points="326.088,306.377,330.088,316.377,334.088,306.377,330.088,310.377" fill="#181818" style="stroke:#181818;stroke-width:1;stroke-linejoin:miter;stroke-miterlimit:10;"/><line x1="337.752" y1="216.783" x2="337.752" y2="220.283" style="stroke:#181818;stroke-width:1;"/><line x1="337.752" y1="220.283" x2="109.682" y2="220.283" style="stroke:#181818;stroke-width:1;"/><line x1="109.682" y1="220.283" x2="109.682" y2="235.283" style="stroke:#181818;stroke-width:1;"/><polygon points="105.682,225.283,109.682,235.283,113.682,225.283,109.682,229.283" fill="#181818" style="stroke:#181818;stroke-width:1;stroke-linejoin:miter;stroke-miterlimit:10;"/><line x1="337.752" y1="322.377" x2="337.752" y2="327.377" style="stroke:#181818;stroke-width:1;"/><line x1="337.752" y1="327.377" x2="250.395" y2="327.377" style="stroke:#181818;stroke-width:1;"/><line x1="250.395" y1="327.377" x2="250.395" y2="342.377" style="stroke:#181818;stroke-width:1;"/><polygon points="246.395,332.377,250.395,342.377,254.395,332.377,250.395,336.377" fill="#181818" style="stroke:#181818;stroke-width:1;stroke-linejoin:miter;stroke-miterlimit:10;"/><text x="77.514" y="36.141" fill="#000" font-size="18" textLength="41.01">Desk</text><text x="217.72" y="36.141" fill="#000" font-size="18" textLength="46.011">Team</text><text x="341.407" y="36.141" fill="#000" font-size="18" textLength="48.032">Board</text><?plantuml-src ROvB3iCW34JtdCBdW5K_-rPHBs0bReEWs08htN3uGEYcKdSUZ-TvwfLAgAOePZNs9fH0LmBrSo1rfZu8tysMwDK0s7l4v8O4VA5FRLdFZ7cftJw9PDx86KeBZ50T3vwSGx-OI3WtSDV_21DjdZwkZGifpkj1EiBVAlOIkT1FoQ8iEm00?></g></svg>