<svg xmlns="http://www.w3.org/2000/svg" xmlns:xlink="http://www.w3.org/1999/xlink" version="1.1" data-diagram-type="DESCRIPTION" style="width:456px;height:206px;background:#FFFFFF;" width="456px" height="206px" viewBox="0 0 456 206" zoomAndPan="magnify" preserveAspectRatio="none" contentStyleType="text/css"><?plantuml 1.2026.8?><defs/><g font-family="sans-serif" lengthAdjust="spacing"><!--cluster Online Store--><g class="cluster" data-qualified-name="Online Store" id="ent0002" data-source-line="2"><path d="M16.5,90 L100.734,90 A3.75,3.75 0 0 1 103.234,92.5 L110.234,113.609 L267.5,113.609 A2.5,2.5 0 0 1 270,116.109 L270,179.5 A2.5,2.5 0 0 1 267.5,182 L16.5,182 A2.5,2.5 0 0 1 14,179.5 L14,92.5 A2.5,2.5 0 0 1 16.5,90" style="stroke:#000;stroke-width:1.5;" fill="none"/><line x1="14" y1="113.609" x2="110.234" y2="113.609" style="stroke:#000;stroke-width:1.5;"/><text x="18" y="106.533" fill="#000" font-size="14" textLength="83.234" font-weight="700">Online Store</text></g><!--cluster Backoffice--><g class="cluster" data-qualified-name="Backoffice" id="ent0005" data-source-line="6"><path d="M288.5,90.5 L360.307,90.5 A3.75,3.75 0 0 1 362.807,93 L369.807,114.109 L445.5,114.109 A2.5,2.5 0 0 1 448,116.609 L448,179 A2.5,2.5 0 0 1 445.5,181.5 L288.5,181.5 A2.5,2.5 0 0 1 286,179 L286,93 A2.5,2.5 0 0 1 288.5,90.5" style="stroke:#000;stroke-width:1.5;" fill="none"/><line x1="286" y1="114.109" x2="369.807" y2="114.109" style="stroke:#000;stroke-width:1.5;"/><text x="290" y="107.033" fill="#000" font-size="14" textLength="70.807" font-weight="700">Backoffice</text></g><!--entity Guest--><g class="entity" data-qualified-name="Guest" id="ent0001" data-source-line="1"><ellipse cx="126.176" cy="12.5" rx="8" ry="8" fill="#F1F1F1" style="stroke:#181818;stroke-width:0.5;"/><path d="M126.176,20.5 L126.176,47.5 M113.176,28.5 L139.176,28.5 M126.176,47.5 L113.176,62.5 M126.176,47.5 L139.176,62.5" style="stroke:#181818;stroke-width:0.5;" fill="none"/><text x="107.5" y="78.533" fill="#000" font-size="14" textLength="37.352">Guest</text></g><!--entity Clerk--><g class="entity" data-qualified-name="Clerk" id="ent0007" data-source-line="9"><ellipse cx="366.834" cy="12.5" rx="8" ry="8" fill="#F1F1F1" style="stroke:#181818;stroke-width:0.5;"/><path d="M366.834,20.5 L366.834,47.5 M353.834,28.5 L379.834,28.5 M366.834,47.5 L353.834,62.5 M366.834,47.5 L379.834,62.5" style="stroke:#181818;stroke-width:0.5;" fill="none"/><text x="350.5" y="78.533" fill="#000" font-size="14" textLength="32.669">Clerk</text></g><!--entity UC1--><g class="entity" data-qualified-name="Online Store.UC1" id="ent0003" data-source-line="3"><ellipse cx="186.027" cy="150.005" rx="68.027" ry="16.005" fill="#F1F1F1" style="stroke:#181818;stroke-width:0.5;"/><text x="138.168" y="155.31" fill="#000" font-size="14" textLength="95.717">Browse catalog</text></g><!--entity UC2--><g class="entity" data-qualified-name="Online Store.UC2" id="ent0004" data-source-line="4"><ellipse cx="64.866" cy="149.952" rx="34.366" ry="15.452" fill="#F1F1F1" style="stroke:#181818;stroke-width:0.5;"/><text x="42.687" y="155.256" fill="#000" font-size="14" textLength="44.358">Search</text></g><!--entity UC3--><g class="entity" data-qualified-name="Backoffice.UC3" id="ent0006" data-source-line="7"><ellipse cx="367.13" cy="149.952" rx="64.63" ry="15.452" fill="#F1F1F1" style="stroke:#181818;stroke-width:0.5;"/><text x="323.551" y="155.256" fill="#000" font-size="14" textLength="87.158">Manage stock</text></g><g class="link" data-entity-1="ent0001" data-entity-2="ent0003" id="lnk8" data-link-type="dependency"><polygon points="177.402,133.954,176.41,124.156,174.922,129.613,169.464,128.125,177.402,133.954" fill="#181818" style="stroke:#181818;stroke-width:1;stroke-linejoin:miter;stroke-miterlimit:10;"/><path d="M144.655,76.647 C155.595,95.791 166.414,114.724 174.922,129.613" style="stroke:#181818;stroke-width:1;" fill="none"/></g><g class="link" data-entity-1="ent0001" data-entity-2="ent0004" id="lnk9" data-link-type="dependency"><polygon points="73.512,134.348,81.492,128.576,76.024,130.025,74.574,124.557,73.512,134.348" fill="#181818" style="stroke:#181818;stroke-width:1;stroke-linejoin:miter;stroke-miterlimit:10;"/><path d="M107.367,76.074 C96.085,95.494 84.748,115.008 76.024,130.025" style="stroke:#181818;stroke-width:1;" fill="none"/></g><g class="link" data-entity-1="ent0007" data-entity-2="ent0006" id="lnk10" data-link-type="dependency"><polygon points="367,134.239,371,125.239,367,129.239,363,125.239,367,134.239" fill="#181818" style="stroke:#181818;stroke-width:1;stroke-linejoin:miter;stroke-miterlimit:10;"/><path d="M367,82.204 C367,100.265 367,115.768 367,129.239" style="stroke:#181818;stroke-width:1;" fill="none"/></g><?plantuml-src LOwn2iCm34HtVONmdg79tY4PEfKEeHyWX9866wlO3XbA_xsECI6TZkFTdKISDE1jbPZWJMnf5ZGFxnOlE6Oa1Z-0k4PXYXdrGRUiJ8cSpWOfudEud1EZKE1N9IryZza-gqxJml8_UIU_uvYKRQrrkKRbiy59i53-mwQvbcDdrq99LDVz0000?></g></svg>