<svg xmlns="http://www.w3.org/2000/svg" xmlns:xlink="http://www.w3.org/1999/xlink" version="1.1" data-diagram-type="SEQUENCE" style="width:154px;height:211px;background:#FFFFFF;" width="154px" height="211px" viewBox="0 0 154 211" zoomAndPan="magnify" preserveAspectRatio="none" contentStyleType="text/css"><?plantuml 1.2026.8?><defs/><g font-family="sans-serif" lengthAdjust="spacing"><rect x="16.172" y="84.961" width="118.053" height="58.703" fill="none" style="stroke:#000;stroke-width:1.5;"/><g><title>Alice</title><rect x="28.672" y="42.609" width="8" height="125.055" fill="#000" fill-opacity="0"/><line x1="32.172" y1="42.609" x2="32.172" y2="167.664" style="stroke:#181818;stroke-width:0.5;stroke-dasharray:5,5;"/></g><g><title>Bob</title><rect x="80.3" y="42.609" width="8" height="125.055" fill="#000" fill-opacity="0"/><line x1="83.8" y1="42.609" x2="83.8" y2="167.664" style="stroke:#181818;stroke-width:0.5;stroke-dasharray:5,5;"/></g><rect x="10" y="10" width="44.345" height="31.609" fill="#E2E2F0" style="stroke:#181818;stroke-width:0.5;" rx="2.5" ry="2.5"/><text x="17" y="31.533" fill="#000" font-size="14" textLength="30.345">Alice</text><rect x="64.345" y="10" width="38.91" height="31.609" fill="#E2E2F0" style="stroke:#181818;stroke-width:0.5;" rx="2.5" ry="2.5"/><text x="71.345" y="31.533" fill="#000" font-size="14" textLength="24.91">Bob</text><rect x="10" y="167.664" width="44.345" height="31.609" fill="#E2E2F0" style="stroke:#181818;stroke-width:0.5;" rx="2.5" ry="2.5"/><text x="17" y="189.197" fill="#000" font-size="14" textLength="30.345">Alice</text><rect x="64.345" y="167.664" width="38.91" height="31.609" fill="#E2E2F0" style="stroke:#181818;stroke-width:0.5;" rx="2.5" ry="2.5"/><text x="71.345" y="189.197" fill="#000" font-size="14" textLength="24.91">Bob</text><polygon points="71.8,68.961,81.8,72.961,71.8,76.961,75.8,72.961" fill="#181818" style="stroke:#181818;stroke-width:1;stroke-linejoin:miter;stroke-miterlimit:10;"/><line x1="32.172" y1="72.961" x2="77.8" y2="72.961" style="stroke:#181818;stroke-width:1;"/><text x="39.172" y="68.104" fill="#000" font-size="13" textLength="27.466">hello</text><path d="M16.172,84.961 L76.343,84.961 L76.343,93.313 L66.343,103.313 L16.172,103.313 L16.172,84.961" style="stroke:#000;stroke-width:1.5;" fill="#EEE"/><rect x="16.172" y="84.961" width="118.053" height="58.703" fill="none" style="stroke:#000;stroke-width:1.5;"/><text x="31.172" y="99.456" fill="#000" font-size="13" textLength="15.171" font-weight="700">alt</text><text x="91.343" y="98.38" fill="#000" font-size="11" textLength="26.882" font-weight="700">[one]</text><polygon points="43.172,131.664,33.172,135.664,43.172,139.664,39.172,135.664" fill="#181818" style="stroke:#181818;stroke-width:1;stroke-linejoin:miter;stroke-miterlimit:10;"/><line x1="37.172" y1="135.664" x2="82.8" y2="135.664" style="stroke:#181818;stroke-width:1;"/><text x="49.172" y="130.808" fill="#000" font-size="13" textLength="20.23">yes</text><?plantuml-src Syp9J4vLqBLJSCfFKh1Io4ZDoSddIimfKSZFI-LI08i29Ht1ggmKAbEB0G00?></g></svg>