<svg xmlns="http://www.w3.org/2000/svg" xmlns:xlink="http://www.w3.org/1999/xlink" version="1.1" data-diagram-type="SEQUENCE" style="width:247px;height:247px;background:#FFFFFF;" width="247px" height="247px" viewBox="0 0 247 247" zoomAndPan="magnify" preserveAspectRatio="none" contentStyleType="text/css"><?plantuml 1.2026.8?><defs/><g font-family="sans-serif" lengthAdjust="spacing"><rect x="16" y="11" width="155.613" height="221.977" fill="#ADD8E6" style="stroke:#181818;stroke-width:0.5;"/><text x="45.393" y="24.495" fill="#000" font-size="13" textLength="96.827" font-weight="700">Internal Service</text><rect x="64.91" y="32.352" width="106.703" height="200.625" fill="#DDD" style="stroke:#181818;stroke-width:0.5;"/><text x="90.811" y="45.847" fill="#000" font-size="13" textLength="54.901" font-weight="700">Subteam</text><g><title>Bob</title><rect x="35.955" y="85.313" width="8" height="109.055" fill="#000" fill-opacity="0"/><line x1="39.455" y1="85.313" x2="39.455" y2="194.367" style="stroke:#181818;stroke-width:0.5;stroke-dasharray:5,5;"/></g><g><title>Alice</title><rect x="87.583" y="85.313" width="8" height="109.055" fill="#000" fill-opacity="0"/><line x1="91.083" y1="85.313" x2="91.083" y2="194.367" style="stroke:#181818;stroke-width:0.5;stroke-dasharray:5,5;"/></g><g><title>John</title><rect x="141.934" y="85.313" width="8" height="109.055" fill="#000" fill-opacity="0"/><line x1="145.434" y1="85.313" x2="145.434" y2="194.367" style="stroke:#181818;stroke-width:0.5;stroke-dasharray:5,5;"/></g><g><title>Other</title><rect x="208.62" y="85.313" width="8" height="109.055" fill="#000" fill-opacity="0"/><line x1="212.12" y1="85.313" x2="212.12" y2="194.367" style="stroke:#181818;stroke-width:0.5;stroke-dasharray:5,5;"/></g><rect x="20" y="52.703" width="38.91" height="31.609" fill="#E2E2F0" style="stroke:#181818;stroke-width:0.5;" rx="2.5" ry="2.5"/><text x="27" y="74.236" fill="#000" font-size="14" textLength="24.91">Bob</text><rect x="68.91" y="52.703" width="44.345" height="31.609" fill="#E2E2F0" style="stroke:#181818;stroke-width:0.5;" rx="2.5" ry="2.5"/><text x="75.91" y="74.236" fill="#000" font-size="14" textLength="30.345">Alice</text><rect x="123.255" y="52.703" width="44.358" height="31.609" fill="#E2E2F0" style="stroke:#181818;stroke-width:0.5;" rx="2.5" ry="2.5"/><text x="130.255" y="74.236" fill="#000" font-size="14" textLength="30.358">John</text><rect x="187.613" y="52.703" width="49.014" height="31.609" fill="#E2E2F0" style="stroke:#181818;stroke-width:0.5;" rx="2.5" ry="2.5"/><text x="194.613" y="74.236" fill="#000" font-size="14" textLength="35.014">Other</text><rect x="20" y="194.367" width="38.91" height="31.609" fill="#E2E2F0" style="stroke:#181818;stroke-width:0.5;" rx="2.5" ry="2.5"/><text x="27" y="215.9" fill="#000" font-size="14" textLength="24.91">Bob</text><rect x="68.91" y="194.367" width="44.345" height="31.609" fill="#E2E2F0" style="stroke:#181818;stroke-width:0.5;" rx="2.5" ry="2.5"/><text x="75.91" y="215.9" fill="#000" font-size="14" textLength="30.345">Alice</text><rect x="123.255" y="194.367" width="44.358" height="31.609" fill="#E2E2F0" style="stroke:#181818;stroke-width:0.5;" rx="2.5" ry="2.5"/><text x="130.255" y="215.9" fill="#000" font-size="14" textLength="30.358">John</text><rect x="187.613" y="194.367" width="49.014" height="31.609" fill="#E2E2F0" style="stroke:#181818;stroke-width:0.5;" rx="2.5" ry="2.5"/><text x="194.613" y="215.9" fill="#000" font-size="14" textLength="35.014">Other</text><polygon points="79.083,111.664,89.083,115.664,79.083,119.664,83.083,115.664" fill="#181818" style="stroke:#181818;stroke-width:1;stroke-linejoin:miter;stroke-miterlimit:10;"/><line x1="39.455" y1="115.664" x2="85.083" y2="115.664" style="stroke:#181818;stroke-width:1;"/><text x="46.455" y="110.808" fill="#000" font-size="13" textLength="27.466">hello</text><polygon points="133.434,142.016,143.434,146.016,133.434,150.016,137.434,146.016" fill="#181818" style="stroke:#181818;stroke-width:1;stroke-linejoin:miter;stroke-miterlimit:10;"/><line x1="91.083" y1="146.016" x2="139.434" y2="146.016" style="stroke:#181818;stroke-width:1;"/><text x="98.083" y="141.159" fill="#000" font-size="13" textLength="27.466">hello</text><polygon points="200.12,172.367,210.12,176.367,200.12,180.367,204.12,176.367" fill="#181818" style="stroke:#181818;stroke-width:1;stroke-linejoin:miter;stroke-miterlimit:10;"/><line x1="145.434" y1="176.367" x2="206.12" y2="176.367" style="stroke:#181818;stroke-width:1;"/><text x="152.434" y="171.511" fill="#000" font-size="13" textLength="29.625">Hello</text><?plantuml-src LOmn2iCm34Ltdq9rvruWGw6PsbBea1F8YOWDZcs4KafFNoM6a4pYF_ttJuLnd124yW-4Pp8kVy4-aX0dZD0HVq9F5iwlC7ffepOAieG-54m2RNRLw6OdX9CzV6zHtGDvPfyCfG5Kskw-y1PFR7GMBjVgGmEUOioc9iNBo4RNe70L6xWly0y0?></g></svg>