<svg xmlns="http://www.w3.org/2000/svg" xmlns:xlink="http://www.w3.org/1999/xlink" version="1.1" data-diagram-type="SEQUENCE" style="width:164px;height:169px;background:#FFFFFF;" width="164px" height="169px" viewBox="0 0 164 169" zoomAndPan="magnify" preserveAspectRatio="none" contentStyleType="text/css"><?plantuml 1.2026.8?><defs/><g font-family="sans-serif" lengthAdjust="spacing"><g><title>..important..</title><rect x="53.562" y="60.219" width="8" height="48.352" fill="#000" fill-opacity="0"/><line x1="57.062" y1="60.219" x2="57.062" y2="108.57" style="stroke:#181818;stroke-width:0.5;stroke-dasharray:5,5;"/></g><g><title>Bob</title><rect x="130.079" y="60.219" width="8" height="48.352" fill="#000" fill-opacity="0"/><line x1="133.579" y1="60.219" x2="133.579" y2="108.57" style="stroke:#181818;stroke-width:0.5;stroke-dasharray:5,5;"/></g><rect x="10" y="10" width="94.124" height="49.219" fill="#F88" style="stroke:#181818;stroke-width:0.5;" rx="2.5" ry="2.5"/><text x="17" y="31.533" fill="#000" font-size="14" textLength="80.124" font-weight="700">«important»</text><text x="40.331" y="49.143" fill="#000" font-size="14" textLength="33.462" font-weight="700">Alice</text><rect x="114.124" y="27.609" width="38.91" height="31.609" fill="#E2E2F0" style="stroke:#181818;stroke-width:0.5;" rx="2.5" ry="2.5"/><text x="121.124" y="49.143" fill="#000" font-size="14" textLength="24.91">Bob</text><rect x="10" y="108.57" width="94.124" height="49.219" fill="#F88" style="stroke:#181818;stroke-width:0.5;" rx="2.5" ry="2.5"/><text x="17" y="130.104" fill="#000" font-size="14" textLength="80.124" font-weight="700">«important»</text><text x="40.331" y="147.713" fill="#000" font-size="14" textLength="33.462" font-weight="700">Alice</text><rect x="114.124" y="108.57" width="38.91" height="31.609" fill="#E2E2F0" style="stroke:#181818;stroke-width:0.5;" rx="2.5" ry="2.5"/><text x="121.124" y="130.104" fill="#000" font-size="14" textLength="24.91">Bob</text><polygon points="121.579,86.57,131.579,90.57,121.579,94.57,125.579,90.57" fill="#181818" style="stroke:#181818;stroke-width:1;stroke-linejoin:miter;stroke-miterlimit:10;"/><line x1="57.062" y1="90.57" x2="127.579" y2="90.57" style="stroke:#181818;stroke-width:1;"/><text x="64.062" y="85.714" fill="#000" font-size="13" textLength="27.466">hello</text><?plantuml-src ioakgSn9jUFIoymjo2ygISmhKQZcKb1mIapETY_AByrBSSxFoIzIK4vBim02e8nRVbv9C4YFGb9-JWfNBPUDFjI8WiIYaipap0AG6OuvcScf2ZOsS5FjKEMTyfEu86fqxK0S1Ik5ZDISd7m0?></g></svg>